<?xml version="1.0" standalone="no"?>
<!DOCTYPE svg PUBLIC "-//W3C//DTD SVG 20010904//EN"
 "http://www.w3.org/TR/2001/REC-SVG-20010904/DTD/svg10.dtd">
<svg version="1.0" xmlns="http://www.w3.org/2000/svg"
 width="512.000000pt" height="512.000000pt" viewBox="0 0 512.000000 512.000000"
 preserveAspectRatio="xMidYMid meet">

<g transform="translate(0.000000,512.000000) scale(0.100000,-0.100000)"
fill="#000000" stroke="none">
<path d="M505 5113 c-51 -7 -127 -34 -199 -71 -127 -66 -228 -192 -282 -352
-18 -53 -19 -128 -19 -2130 0 -2002 1 -2077 19 -2130 68 -202 189 -325 393
-403 l58 -22 1162 -3 c1289 -3 1238 -5 1382 63 56 27 92 54 150 113 84 84 129
159 158 262 17 62 18 157 18 2120 0 1963 -1 2058 -18 2120 -29 103 -74 178
-158 262 -58 59 -94 86 -150 113 -142 67 -92 65 -1349 63 -624 0 -1148 -3
-1165 -5z m2300 -394 c54 -15 101 -52 125 -99 20 -38 20 -60 20 -975 0 -763
-2 -942 -14 -968 -17 -42 -76 -93 -123 -107 -27 -8 -372 -10 -1164 -8 l-1126
3 -40 28 c-22 15 -50 46 -64 70 l-24 42 0 940 c0 866 1 942 17 971 23 41 82
92 116 100 15 3 32 7 37 9 6 2 503 4 1105 4 763 1 1107 -2 1135 -10z m-991
-2969 c184 -96 223 -342 76 -490 -86 -85 -210 -112 -323 -70 -197 74 -263 328
-125 485 22 25 59 56 82 70 79 46 204 48 290 5z"/>
<path d="M738 4520 c-51 -15 -94 -49 -118 -92 -25 -43 -25 -46 -25 -293 0
-244 1 -251 23 -291 29 -49 90 -91 146 -99 22 -3 448 -5 946 -3 829 3 908 4
936 20 51 28 91 81 103 138 14 67 14 404 0 472 -14 65 -73 130 -134 147 -48
13 -1834 14 -1877 1z"/>
<path d="M699 3520 c-47 -25 -86 -71 -99 -118 -5 -20 -10 -134 -10 -252 0
-118 5 -232 10 -252 14 -50 55 -97 105 -119 38 -18 89 -19 971 -19 l931 0 44
23 c29 16 54 40 74 72 l30 48 0 246 c0 232 -1 248 -21 286 -27 49 -49 70 -97
90 -32 13 -152 15 -969 15 -900 -1 -934 -2 -969 -20z"/>
<path d="M3322 5073 c128 -135 198 -287 218 -473 13 -129 13 -3951 0 -4080
-20 -186 -90 -338 -218 -472 -20 -21 -33 -38 -28 -38 9 0 650 200 654 205 1 1
-13 22 -33 45 -114 137 -170 330 -145 502 23 158 82 277 191 387 75 75 150
123 242 156 245 89 509 30 696 -156 79 -80 127 -156 162 -260 l26 -78 14 37
c11 31 14 309 17 1677 2 1199 0 1656 -8 1700 -33 170 -152 298 -385 413 -55
27 -131 61 -170 75 -70 27 -1247 397 -1261 397 -5 0 8 -17 28 -37z"/>
</g>
</svg>
